<mxfile host="app.diagrams.net" modified="2023-06-28T07:09:48.557Z" agent="Mozilla/5.0 (Windows NT 10.0; Win64; x64) AppleWebKit/537.36 (KHTML, like Gecko) Chrome/114.0.0.0 Safari/537.36" version="21.5.1" etag="mez5QGVtvDx7DvmZa5kF" type="github">
  <diagram name="Page-1" id="tZIWG0VUi0laoN_gN-Mq">
    <mxGraphModel>
      <root>
        <mxCell id="0" />
        <mxCell id="1" parent="0" />
      </root>
    </mxGraphModel>
  </diagram>
</mxfile>
